<?xml version="1.0" encoding="UTF-8" standalone="no"?>
<svg width="260px" height="105px" viewBox="0 0 260 105" version="1.1" xmlns="http://www.w3.org/2000/svg" xmlns:xlink="http://www.w3.org/1999/xlink">
    <!-- Generator: sketchtool 3.7.2 (28276) - http://www.bohemiancoding.com/sketch -->
    <title>1EE7EC1C-2E03-4D4E-8D84-A145584C8F49</title>
    <desc>Created with sketchtool.</desc>
    <defs></defs>
    <g id="Iteration-2" stroke="none" stroke-width="1" fill="none" fill-rule="evenodd">
        <g id="0.0-main-page" transform="translate(-320.000000, -37.000000)" fill="#FFFFFF">
            <g id="Header">
                <g id="head" transform="translate(320.000000, 37.000000)">
                    <g id="Logo">
                        <path d="M126.494107,46.5776698 C125.413219,45.8624653 124.314408,45.3424461 123.20181,45.0190368 C122.086456,44.6956276 120.794629,44.5332107 119.324953,44.5332107 C118.329543,44.5332107 117.507848,44.6001721 116.858488,44.7326701 C116.210507,44.8680176 115.701773,45.0518052 115.333664,45.2854576 C114.965556,45.5205348 114.706363,45.7826815 114.556087,46.0718977 C114.404431,46.3625385 114.328604,46.6745501 114.328604,47.0079322 C114.328604,47.7003414 114.587796,48.1747699 115.10756,48.4312177 C115.625945,48.6876655 116.307015,48.8714532 117.150769,48.9825805 L122.731679,49.6521943 C124.591523,49.8972445 126.05017,50.4486073 127.110378,51.3077075 C128.170586,52.1668078 128.7,53.4105798 128.7,55.0375988 C128.7,56.0420195 128.478032,56.9182162 128.035475,57.6647643 C127.591539,58.4113125 126.969752,59.0253626 126.170116,59.5054899 C125.369101,59.9841925 124.40678,60.3417948 123.281774,60.5754472 C122.158147,60.8090997 120.924225,60.9259259 119.584145,60.9259259 C117.789099,60.9259259 116.171904,60.7136441 114.733937,60.2890805 C113.29597,59.8659416 111.884198,59.1393394 110.5,58.1106986 L112.057912,55.4621624 C113.311136,56.334085 114.565737,56.9652316 115.820339,57.3556022 C117.074941,57.7473975 118.492228,57.9425828 120.07082,57.9425828 C121.693531,57.9425828 123.006037,57.7075056 124.012476,57.238776 C125.017537,56.7700464 125.520756,56.0548418 125.520756,55.0931625 C125.520756,53.7738809 124.591523,53.0145103 122.731679,52.8136262 L116.826778,52.1425877 C115.052413,51.9203329 113.65167,51.4216844 112.624551,50.6509162 C111.597432,49.880148 111.084562,48.6677196 111.084562,47.0136311 C111.084562,46.0747471 111.299636,45.254114 111.732543,44.5503072 C112.16545,43.8450757 112.755526,43.2709175 113.501394,42.8235585 C114.247262,42.3761995 115.122726,42.0413926 116.129164,41.8177131 C117.134225,41.5940336 118.199947,41.4814815 119.324953,41.4814815 C120.946284,41.4814815 122.465594,41.6581455 123.88288,42.0071995 C125.298788,42.3576782 126.69953,43.0415391 128.083729,44.0587822 L126.494107,46.5776698 Z" id="Fill-123"></path>
                        <path d="M135.90884,57.9386568 L144.732414,57.9386568 C145.685084,57.9386568 146.397864,57.690415 146.874888,57.195326 C147.349155,56.7002371 147.587668,56.1005519 147.587668,55.3948758 C147.587668,54.6250473 147.356049,54.0197836 146.890054,53.5790847 C146.425437,53.1383858 145.814681,52.9180364 145.057784,52.9180364 L135.90884,52.9180364 L135.90884,57.9386568 Z M135.90884,49.9963142 L144.343625,49.9963142 C144.970926,49.9963142 145.457602,49.7829379 145.803651,49.3520013 C146.149701,48.9224593 146.323415,48.4427111 146.323415,47.9141514 C146.323415,47.6268603 146.284812,47.3563047 146.208984,47.103879 C146.133157,46.8500588 145.998046,46.6241309 145.803651,46.4247007 C145.609257,46.2266651 145.3542,46.0662841 145.041239,45.9463471 C144.726899,45.8250154 144.332596,45.7636523 143.85695,45.7636523 L135.90884,45.7636523 L135.90884,49.9963142 Z M144.051345,42.7777778 C144.850981,42.7777778 145.592713,42.8879525 146.273782,43.1055127 C146.954852,43.3244676 147.533899,43.6424402 148.009545,44.0566414 C148.485191,44.4736318 148.858814,44.9659315 149.129036,45.5335405 C149.399258,46.1025442 149.534369,46.7482517 149.534369,47.4706632 C149.534369,48.9796386 149.025634,50.0855697 148.009545,50.7842727 C148.896038,51.1789493 149.582623,51.7646883 150.069298,52.5400952 C150.555973,53.3168968 150.8,54.2526846 150.8,55.3460642 C150.8,56.1131034 150.65386,56.8341203 150.361579,57.5119041 C150.069298,58.1910824 149.663965,58.7810053 149.14558,59.284462 C148.625816,59.7879186 148.00403,60.186779 147.280221,60.4824378 C146.555034,60.7767019 145.749883,60.9259259 144.863389,60.9259259 L132.6,60.9259259 L132.6,42.7777778 L144.051345,42.7777778 Z" id="Fill-125"></path>
                        <polygon id="Fill-127" points="171.1029 42.7777778 171.1029 45.7636523 158.079718 45.7636523 158.079718 50.160879 169.810157 50.160879 169.810157 53.1481481 158.079718 53.1481481 158.079718 57.8731098 171.6 57.8731098 171.6 60.9259259 154.7 60.9259259 154.7 42.7777778"></polygon>
                        <path d="M178.869071,53.6733613 L186.102746,53.6733613 C187.359128,53.6733613 188.376868,53.3344434 189.158774,52.6552129 C189.940679,51.977377 190.330929,51.0261753 190.330929,49.8002129 C190.330929,48.5533297 189.940679,47.5798124 189.158774,46.8796609 C188.376868,46.1795095 187.359128,45.8294338 186.102746,45.8294338 L178.869071,45.8294338 L178.869071,53.6733613 Z M186.254354,42.7777778 C187.314207,42.7777778 188.295449,42.9465394 189.199483,43.2854573 C190.104921,43.6243752 190.88823,44.1013708 191.54941,44.7136546 C192.21059,45.3259384 192.735604,46.0651421 193.121643,46.9284763 C193.507682,47.7932051 193.7,48.7499858 193.7,49.8002129 C193.7,51.2451469 193.351863,52.4864513 192.655588,53.5255206 C191.959314,54.56459 191.03703,55.3581879 189.89295,55.9049197 L192.766487,60.9259259 L189.0942,60.9259259 L186.777964,56.7250174 L178.869071,56.7250174 L178.869071,60.9259259 L175.5,60.9259259 L175.5,42.7777778 L186.254354,42.7777778 Z" id="Fill-129"></path>
                        <polygon id="Fill-131" points="201.08318 42.7777778 213.61682 56.2651166 213.61682 42.7777778 217.1 42.7777778 217.1 60.9259259 213.574732 60.9259259 201.014967 47.3716454 201.014967 60.9259259 197.6 60.9259259 197.6 42.7777778"></polygon>
                        <polygon id="Fill-133" points="236.1029 42.7777778 236.1029 45.7636523 223.079718 45.7636523 223.079718 50.160879 234.810157 50.160879 234.810157 53.1481481 223.079718 53.1481481 223.079718 57.8731098 236.6 57.8731098 236.6 60.9259259 219.7 60.9259259 219.7 42.7777778"></polygon>
                        <path d="M243.946752,57.8742699 L249.860804,57.8742699 C250.851745,57.8742699 251.75939,57.7264292 252.580866,57.429353 C253.403778,57.1336715 254.10749,56.7222279 254.693438,56.1950223 C255.279386,55.6692113 255.734644,55.0332172 256.062086,54.2870399 C256.388091,53.5422573 256.551812,52.7179754 256.551812,51.8183785 C256.551812,50.9187815 256.388091,50.0972891 256.062086,49.3511118 C255.734644,48.6049345 255.279386,47.9689404 254.693438,47.4417347 C254.10749,46.9159238 253.403778,46.5044802 252.580866,46.2087987 C251.75939,45.9117225 250.851745,45.7638818 249.860804,45.7638818 L243.946752,45.7638818 L243.946752,57.8742699 Z M249.928303,42.7777778 C251.235197,42.7777778 252.49757,42.9911705 253.713986,43.4179561 C254.930402,43.8433469 256.006076,44.4514465 256.941008,45.2380708 C257.875939,46.0260899 258.618427,46.9786863 259.171343,48.0944655 C259.722824,49.2102447 260,50.4571279 260,51.8351152 C260,53.2131024 259.717079,54.4669593 259.15411,55.5938962 C258.59114,56.7208332 257.847216,57.6776138 256.923774,58.4642381 C256.000331,59.2522572 254.930402,59.8589621 253.713986,60.2857476 C252.49757,60.7125332 251.235197,60.9259259 249.928303,60.9259259 L240.5,60.9259259 L240.5,42.7777778 L249.928303,42.7777778 Z" id="Fill-135"></path>
                        <polygon id="Fill-137" points="87.1 84.4361255 71.8034798 75.6536374 35.7100668 96.3803093 22.1350152 88.5860296 3.41852963 99.3335101 3.41852963 90.5024685 22.1350152 79.754988 35.7100668 87.5492676 71.8034798 66.8225958 87.0239051 75.5608144 87.0239051 59.175405 71.8034798 50.4357583 35.7100668 71.1638582 22.1350152 63.3681505 3.41852963 74.115631 3.41852963 65.2845893 22.1350152 54.5371088 35.7100668 62.3328165 71.8034798 41.6047166 87.0239051 50.3443633 87.0239051 33.9575258 71.8034798 25.2178791 35.7100668 45.945979 22.1350152 38.1502713 3.41852963 48.8977518 3.41852963 40.0667102 22.1350152 29.3192297 35.7100668 37.1149374 71.8034798 16.3868375 87.0239051 25.1264841 87.0239051 8.73964666 71.8034798 0 35.7100668 20.7280999 22.1350152 12.9323922 0 25.6434371 0 29.422049 22.1350152 16.7110041 35.7100668 24.5052838 71.8034798 3.77861194 83.7345933 10.6289526 83.7345933 19.4599943 71.8034798 12.6096536 35.7100668 33.3363254 22.1350152 25.5420458 0.129217836 38.1788323 0.129217836 54.5656698 22.1350152 41.9274552 35.7100668 49.7231629 71.8034798 28.9964911 83.7345933 35.8468318 83.7345933 44.6778734 71.8034798 37.8275327 35.7100668 58.5542046 22.1350152 50.7599249 0.129217836 63.3952834 0.129217836 79.7821209 22.1350152 67.1453344 35.7100668 74.9410421 71.8034798 54.2129422 83.7345933 61.0647109 83.7345933 69.8943245 71.8034798 63.0439838 35.7100668 83.7720837 22.1350152 75.976376 0.129217836 88.6131625 0.129217836 105 22.1350152 92.3632135 35.7100668 100.158921 71.8034798 79.4308213 87.1 88.2133094"></polygon>
                    </g>
                </g>
            </g>
        </g>
    </g>
</svg>